<mxfile host="app.diagrams.net" modified="2021-10-09T14:58:51.884Z" agent="5.0 (Macintosh; Intel Mac OS X 10_14_3) AppleWebKit/537.36 (KHTML, like Gecko) Chrome/94.0.4606.71 Safari/537.36" etag="HWESYdzM-P7HlBDfe5oH" version="15.4.3" type="github">
  <diagram id="Ry9CxRdUc--99yD2-6FV" name="Page-1">
    <mxGraphModel dx="946" dy="484" grid="0" gridSize="10" guides="1" tooltips="1" connect="1" arrows="1" fold="1" page="1" pageScale="1" pageWidth="300" pageHeight="200" background="#EFF1F3" math="0" shadow="0">
      <root>
        <mxCell id="0" />
        <mxCell id="1" parent="0" />
        <mxCell id="uptbzaJJDbJox0cxPhpd-5" style="edgeStyle=orthogonalEdgeStyle;rounded=0;orthogonalLoop=1;jettySize=auto;html=1;exitX=0.5;exitY=0;exitDx=0;exitDy=0;entryX=0.5;entryY=1;entryDx=0;entryDy=0;dashed=1;fontSize=30;strokeColor=#999999;strokeWidth=4;startArrow=classic;startFill=1;endArrow=none;endFill=0;" parent="1" source="r1W4fXb6D5SB3DHGlzW5-1" target="r1W4fXb6D5SB3DHGlzW5-2" edge="1">
          <mxGeometry relative="1" as="geometry" />
        </mxCell>
        <mxCell id="r1W4fXb6D5SB3DHGlzW5-1" value="&lt;font style=&quot;font-size: 30px&quot;&gt;摊低物流和仓储&lt;/font&gt;" style="rounded=1;whiteSpace=wrap;html=1;strokeColor=none;fillColor=#FDD276;" parent="1" vertex="1">
          <mxGeometry x="339" y="230" width="222" height="122" as="geometry" />
        </mxCell>
        <mxCell id="r1W4fXb6D5SB3DHGlzW5-2" value="&lt;font style=&quot;font-size: 30px&quot;&gt;超低价&lt;/font&gt;" style="rounded=1;whiteSpace=wrap;html=1;strokeColor=none;fillColor=#9AC7BF;" parent="1" vertex="1">
          <mxGeometry x="193" y="34" width="222" height="122" as="geometry" />
        </mxCell>
        <mxCell id="uptbzaJJDbJox0cxPhpd-4" style="edgeStyle=orthogonalEdgeStyle;rounded=0;orthogonalLoop=1;jettySize=auto;html=1;exitX=0.5;exitY=0;exitDx=0;exitDy=0;entryX=0.5;entryY=1;entryDx=0;entryDy=0;fontSize=30;strokeWidth=4;strokeColor=#999999;dashed=1;startArrow=classic;startFill=1;endArrow=none;endFill=0;" parent="1" source="uptbzaJJDbJox0cxPhpd-1" target="r1W4fXb6D5SB3DHGlzW5-2" edge="1">
          <mxGeometry relative="1" as="geometry" />
        </mxCell>
        <mxCell id="uptbzaJJDbJox0cxPhpd-1" value="&lt;font style=&quot;font-size: 30px&quot;&gt;降低获客成本&lt;/font&gt;" style="rounded=1;whiteSpace=wrap;html=1;strokeColor=none;fillColor=#F19C99;" parent="1" vertex="1">
          <mxGeometry x="48" y="230" width="222" height="122" as="geometry" />
        </mxCell>
      </root>
    </mxGraphModel>
  </diagram>
</mxfile>
